# xmcd
#
# Track frame offsets:
#  150
#  13612
#  26547
#  35985
#  48355
#  59930
#  73575
#  96065
#  108382
#  119540
#  131135
#  144497
#  155202
#  167797
#  180305
#  191145
#  202367
#  214420
#  223637
#  233980
#  246327
#  258922
#  272567
#  284292
#  295957
#
# Disc length: 4290 seconds
#
# Revision: 0
# Processed by: cddbd v1.5.1PL2 Copyright (c) Steve Scherf et al.
# Submitted via: Collectorz.com_Music_Collector 6.9
#
DISCID=9c10c019
DTITLE=Don Gardner and Dee Dee Ford - I Need Your Lovin' - Don Gardner and Dee Dee Ford
DYEAR=1900
DGENRE=Blues - R&B/Soul
TTITLE0=I need Your Lovin'
TTITLE1=Let's Go To The Party
TTITLE2=How Do You Speak To An Angel?
TTITLE3=Everybody Needs Love
TTITLE4=Forever In Your Lover's Arms
TTITLE5=Don't You Worry
TTITLE6=I Got A Man
TTITLE7=T.C.B. ( Taking Care Of Business )
TTITLE8=Everlasting
TTITLE9=Honey Sweet
TTITLE10=Tell Me
TTITLE11=The Quicker The Better
TTITLE12=Lead Me On
TTITLE13=I Need You
TTITLE14=This Lonely Place
TTITLE15=Bad Luck
TTITLE16=You Said
TTITLE17=Can't Get You Out Of My Mind
TTITLE18=I Got A Notion
TTITLE19=Nobody But You
TTITLE20=Exactly Like You
TTITLE21=I Left There Crying
TTITLE22=Don't Do Me No Good
TTITLE23=Does He Or Doesn't He
TTITLE24=I Need Your Lovin' ( Complete Unedited Version )
EXTD=
EXTT0=
EXTT1=
EXTT2=
EXTT3=
EXTT4=
EXTT5=
EXTT6=
EXTT7=
EXTT8=
EXTT9=
EXTT10=
EXTT11=
EXTT12=
EXTT13=
EXTT14=
EXTT15=
EXTT16=
EXTT17=
EXTT18=
EXTT19=
EXTT20=
EXTT21=
EXTT22=
EXTT23=
EXTT24=
PLAYORDER=
